<svg width="276" height="335" viewBox="0 0 276 335" fill="none" xmlns="http://www.w3.org/2000/svg">
<path d="M174 260.684C161.138 267.962 146.933 272 132 272C117.453 272 103.597 268.168 91 261.241V295H174V260.684Z" fill="black"/>
<path d="M223.389 72.9869C231.47 68.43 237 59.1754 237 48.5C237 33.3122 225.807 21 212 21C204.729 21 198.183 24.4144 193.615 29.8652C205.763 41.2863 215.947 55.9968 223.389 72.9869Z" fill="black"/>
<path d="M70.3852 29.8652C65.817 24.4144 59.271 21 52 21C38.1929 21 27 33.3122 27 48.5C27 59.1754 32.5299 68.43 40.6106 72.9869C48.0527 55.9968 58.2374 41.2863 70.3852 29.8652Z" fill="black"/>
<path fill-rule="evenodd" clip-rule="evenodd" d="M237 136C237 211.111 189.99 272 132 272C74.0101 272 27 211.111 27 136C27 60.8893 74.0101 0 132 0C189.99 0 237 60.8893 237 136ZM121 87.5C121 102.688 109.807 115 96 115C82.1929 115 71 102.688 71 87.5C71 72.3122 82.1929 60 96 60C109.807 60 121 72.3122 121 87.5ZM168 115C181.807 115 193 102.688 193 87.5C193 72.3122 181.807 60 168 60C154.193 60 143 72.3122 143 87.5C143 102.688 154.193 115 168 115ZM132.5 115L151.986 166.75H113.014L132.5 115ZM84 194C81.2386 194 79 196.239 79 199C79 201.761 81.2386 204 84 204H181C183.761 204 186 201.761 186 199C186 196.239 183.761 194 181 194H84Z" fill="black"/>
<path d="M8.76208 329.291C8.76208 328.57 8.56053 328.009 8.15742 327.607C7.76164 327.205 7.0617 326.789 6.0576 326.359C5.0535 325.929 4.23262 325.512 3.59498 325.11C1.52081 323.81 0.483728 322.024 0.483728 319.751C0.483728 318.62 0.740251 317.624 1.2533 316.764C1.77367 315.894 2.50659 315.22 3.45206 314.743C4.39753 314.257 5.46027 314.014 6.64027 314.014C7.79096 314.014 8.82071 314.276 9.72954 314.8C10.6457 315.323 11.3566 316.071 11.8623 317.044C12.3681 318.007 12.6209 319.111 12.6209 320.355H8.77307C8.77307 319.522 8.57152 318.877 8.16841 318.419C7.77264 317.961 7.23394 317.731 6.55232 317.731C5.86337 317.731 5.31735 317.928 4.91424 318.321C4.51846 318.704 4.32057 319.195 4.32057 319.794C4.32057 320.317 4.54045 320.794 4.9802 321.224C5.41996 321.645 6.19319 322.085 7.2999 322.543C8.40661 322.992 9.31544 323.478 10.0264 324.002C11.7561 325.274 12.6209 327.027 12.6209 329.263C12.6209 331.049 12.0932 332.452 11.0378 333.471C9.98239 334.49 8.53487 335 6.69524 335C5.39797 335 4.22163 334.705 3.16622 334.116C2.11814 333.518 1.32659 332.704 0.791556 331.675C0.263852 330.637 0 329.445 0 328.098H3.86983C3.86983 329.192 4.0897 330.001 4.52946 330.525C4.97654 331.039 5.69847 331.297 6.69524 331.297C7.33288 331.297 7.83493 331.124 8.20139 330.778C8.57518 330.422 8.76208 329.927 8.76208 329.291Z" fill="black"/>
<path d="M27.9793 334.719H24.1424V326.19H18.4586V334.719H14.5998V314.295H18.4586V322.403H24.1424V314.295H27.9793V334.719Z" fill="black"/>
<path d="M43.9863 324.928C43.9863 326.92 43.6968 328.683 43.1178 330.216C42.5388 331.75 41.7142 332.933 40.6442 333.766C39.5814 334.589 38.3685 335 37.0052 335C35.642 335 34.4327 334.603 33.3773 333.808C32.3219 333.003 31.4973 331.858 30.9036 330.371C30.3173 328.884 30.0095 327.177 29.9802 325.25V324.1C29.9802 322.099 30.266 320.336 30.8377 318.812C31.4167 317.278 32.2412 316.095 33.3113 315.263C34.3887 314.43 35.6127 314.014 36.9832 314.014C38.3391 314.014 39.5485 314.426 40.6112 315.249C41.6739 316.071 42.4985 317.245 43.0848 318.77C43.6785 320.285 43.979 322.024 43.9863 323.988V324.928ZM40.0615 324.072C40.0615 322.043 39.794 320.504 39.259 319.457C38.7312 318.4 37.9727 317.872 36.9832 317.872C35.0483 317.872 34.0259 319.723 33.916 323.427L33.905 324.928C33.905 326.929 34.1651 328.468 34.6855 329.543C35.2059 330.619 35.9791 331.156 37.0052 331.156C37.98 331.156 38.7312 330.628 39.259 329.571C39.7867 328.514 40.0542 326.995 40.0615 325.012V324.072Z" fill="black"/>
<path d="M58.3772 327.102L60.2132 314.295H64.039L60.6419 334.719H56.6402L54.4964 323.076L52.3966 334.719H48.4058L44.9977 314.295H48.8346L50.6705 327.102L52.8693 314.295H56.1455L58.3772 327.102Z" fill="black"/>
<path d="M76.2202 314.295L79.7932 328.505L83.3552 314.295H88.4343V334.719H84.5645V329.95L84.9383 320.186L81.0685 334.719H78.5179L74.6371 320.172L75.0109 329.95V334.719H71.152V314.295H76.2202Z" fill="black"/>
<path d="M100.824 326.064H94.7558V330.932H101.924V334.719H90.897V314.295H101.946V318.096H94.7558V322.403H100.824V326.064Z" fill="black"/>
<path d="M121.504 327.102L123.34 314.295H127.166L123.769 334.719H119.767L117.623 323.076L115.523 334.719H111.532L108.124 314.295H111.961L113.797 327.102L115.996 314.295H119.272L121.504 327.102Z" fill="black"/>
<path d="M142.051 334.719H138.214V326.19H132.531V334.719H128.672V314.295H132.531V322.403H138.214V314.295H142.051V334.719Z" fill="black"/>
<path d="M153.793 330.904H148.505L147.581 334.719H143.458L149.329 314.295H152.957L158.872 334.719H154.727L153.793 330.904ZM149.428 327.102H152.869L151.143 320.018L149.428 327.102Z" fill="black"/>
<path d="M171.295 318.096H166.491V334.719H162.632V318.096H157.915V314.295H171.295V318.096Z" fill="black"/>
<path d="M183.74 323.16L186.686 314.295H190.853L185.697 327.383V334.719H181.783V327.383L176.638 314.295H180.782L183.74 323.16Z" fill="black"/>
<path d="M205.244 324.928C205.244 326.92 204.954 328.683 204.375 330.216C203.796 331.75 202.972 332.933 201.902 333.766C200.839 334.589 199.626 335 198.263 335C196.899 335 195.69 334.603 194.635 333.808C193.579 333.003 192.755 331.858 192.161 330.371C191.575 328.884 191.267 327.177 191.238 325.25V324.1C191.238 322.099 191.523 320.336 192.095 318.812C192.674 317.278 193.499 316.095 194.569 315.263C195.646 314.43 196.87 314.014 198.241 314.014C199.597 314.014 200.806 314.426 201.869 315.249C202.931 316.071 203.756 317.245 204.342 318.77C204.936 320.285 205.236 322.024 205.244 323.988V324.928ZM201.319 324.072C201.319 322.043 201.051 320.504 200.516 319.457C199.989 318.4 199.23 317.872 198.241 317.872C196.306 317.872 195.283 319.723 195.173 323.427L195.162 324.928C195.162 326.929 195.423 328.468 195.943 329.543C196.463 330.619 197.237 331.156 198.263 331.156C199.237 331.156 199.989 330.628 200.516 329.571C201.044 328.514 201.312 326.995 201.319 325.012V324.072Z" fill="black"/>
<path d="M219.789 314.295V327.663C219.789 329.178 219.536 330.492 219.03 331.605C218.524 332.709 217.799 333.55 216.853 334.13C215.908 334.71 214.79 335 213.5 335C211.551 335 210.015 334.355 208.894 333.064C207.772 331.774 207.201 330.006 207.179 327.762V314.295H211.059V327.86C211.103 330.095 211.917 331.212 213.5 331.212C214.299 331.212 214.904 330.932 215.314 330.371C215.725 329.81 215.93 328.898 215.93 327.635V314.295H219.789Z" fill="black"/>
<path d="M240.919 332.194C240.325 333.036 239.457 333.714 238.313 334.228C237.17 334.743 235.917 335 234.553 335C232.457 335 230.782 334.182 229.529 332.545C228.276 330.908 227.605 328.631 227.517 325.713L227.506 323.946C227.506 321.935 227.785 320.182 228.342 318.685C228.899 317.18 229.694 316.025 230.727 315.22C231.768 314.407 232.97 314 234.333 314C236.327 314 237.873 314.585 238.973 315.754C240.08 316.913 240.724 318.648 240.908 320.958H237.192C237.06 319.817 236.774 319.003 236.334 318.517C235.895 318.031 235.272 317.788 234.465 317.788C233.498 317.788 232.75 318.311 232.223 319.359C231.695 320.406 231.427 321.902 231.42 323.848V325.082C231.42 327.121 231.691 328.655 232.234 329.683C232.783 330.703 233.644 331.212 234.817 331.212C235.821 331.212 236.569 330.927 237.06 330.357V327.186H234.377V323.806H240.919V332.194Z" fill="black"/>
<path d="M256.717 324.928C256.717 326.92 256.427 328.683 255.848 330.216C255.269 331.75 254.445 332.933 253.375 333.766C252.312 334.589 251.099 335 249.736 335C248.373 335 247.163 334.603 246.108 333.808C245.052 333.003 244.228 331.858 243.634 330.371C243.048 328.884 242.74 327.177 242.711 325.25V324.1C242.711 322.099 242.997 320.336 243.568 318.812C244.147 317.278 244.972 316.095 246.042 315.263C247.119 314.43 248.343 314.014 249.714 314.014C251.07 314.014 252.279 314.426 253.342 315.249C254.404 316.071 255.229 317.245 255.815 318.77C256.409 320.285 256.709 322.024 256.717 323.988V324.928ZM252.792 324.072C252.792 322.043 252.525 320.504 251.99 319.457C251.462 318.4 250.703 317.872 249.714 317.872C247.779 317.872 246.756 319.723 246.646 323.427L246.635 324.928C246.635 326.929 246.896 328.468 247.416 329.543C247.936 330.619 248.71 331.156 249.736 331.156C250.711 331.156 251.462 330.628 251.99 329.571C252.517 328.514 252.785 326.995 252.792 325.012V324.072Z" fill="black"/>
<path d="M270.327 318.096H265.523V334.719H261.664V318.096H256.948V314.295H270.327V318.096Z" fill="black"/>
<path d="M275.472 328.253H272.471L271.998 314.295H275.945L275.472 328.253ZM271.888 332.601C271.888 331.909 272.083 331.343 272.471 330.904C272.867 330.455 273.358 330.23 273.944 330.23C274.53 330.23 275.018 330.455 275.406 330.904C275.802 331.343 276 331.909 276 332.601C276 333.293 275.802 333.864 275.406 334.313C275.018 334.752 274.53 334.972 273.944 334.972C273.358 334.972 272.867 334.752 272.471 334.313C272.083 333.864 271.888 333.293 271.888 332.601Z" fill="black"/>
<path d="M121 87.5C121 102.688 109.807 115 96 115C82.1929 115 71 102.688 71 87.5C71 72.3122 82.1929 60 96 60C109.807 60 121 72.3122 121 87.5Z" fill="black"/>
<path d="M193 87.5C193 102.688 181.807 115 168 115C154.193 115 143 102.688 143 87.5C143 72.3122 154.193 60 168 60C181.807 60 193 72.3122 193 87.5Z" fill="black"/>
<path d="M132.552 114.5L152.516 168.725H112.588L132.552 114.5Z" fill="black"/>
<path d="M79 199C79 196.239 81.2386 194 84 194H181C183.761 194 186 196.239 186 199C186 201.761 183.761 204 181 204H84C81.2386 204 79 201.761 79 199Z" fill="black"/>
</svg>
